<?xml version='1.0' encoding='utf-8'?>
<svg xmlns="http://www.w3.org/2000/svg" width="362.96948mm" height="486.70203mm" viewBox="0 0 362.96948 486.70203" version="1.1" id="svg5" xml:space="preserve"><defs id="defs2" /><g id="layer1"><path style="fill:#000000;stroke-width:1" d="m 0.1368000000002212 486.02900000000045 c 1.676,-0.704 7.1141,-1.892 12.8134,-2.8 5.3954,-0.858 10.897,-0.898 23.0771,-0.166 10.1643,0.61 15.1053,0.292 25.2153,-1.621 5.2248,-0.99 6.4085,-1.029 27.2532,-0.883 24.2893,0.169 27.2684,0.01 27.2684,-1.406 0,-1.151 -0.8695,-2.853 -1.7116,-3.351 -0.8339,-0.493 -0.8088,-1.706 0.056,-2.662 0.9052,-0.999 0.2673,-5.572 -0.866,-6.205 -0.9305,-0.522 -1.0187,-3 -0.1184,-3.346 0.4178,-0.159 0.7206,-1.291 0.8593,-3.208 0.1837,-2.541 0.082,-3.068 -0.7179,-3.716 -0.9267,-0.75 -0.9263,-0.758 0.076,-1.461 0.5547,-0.389 1.1453,-1.427 1.3127,-2.308 0.4168,-2.193 0.7475,-2.761 4.4572,-7.646 3.34,-4.4 4.8312,-7.566 5.6506,-11.997 0.4309,-2.33 0.3878,-2.614 -0.4996,-3.286 -1.2608,-0.955 -0.7688,-3.109 0.8996,-3.935 1.3984,-0.693 1.9852,-3.609 0.7264,-3.609 -1.6185,0 -0.5897,-2.173 1.1439,-2.417 0.9795,-0.138 1.2125,-0.476 1.4084,-2.043 0.1961,-1.569 0.428,-1.904 1.4085,-2.038 0.6454,-0.09 1.5409,-0.489 1.9899,-0.889 1.149,-1.028 6.3778,-0.483 10.6767,1.111 l 3.3254,1.232 2.9192,-2.769 c 1.6054,-1.523 4.0324,-3.729 5.393,-4.901 2.4393,-2.104 2.5003,-2.222 4.3751,-8.442 3.542,-11.752 9.9705,-27.801 14.9377,-37.293 6.5274,-12.473 13.191,-21.615 23.6567,-32.454 8.4403,-8.742 9.4646,-10.354 9.0303,-14.2 -0.2293,-2.03 -0.076,-3.281 0.6648,-5.413 0.5298,-1.525 0.9632,-3.442 0.9632,-4.257 0,-0.818 0.2944,-2.526 0.6544,-3.8 0.3598,-1.273 0.6715,-3.142 0.6927,-4.151 0.021,-1.01 0.3492,-2.911 0.7288,-4.225 0.3798,-1.315 1.4583,-7.746 2.3965,-14.291 0.9383,-6.546 2.0044,-12.749 2.3693,-13.782 0.6111,-1.732 0.5894,-1.984 -0.276,-3.199 -0.5164,-0.725 -1.0654,-2.241 -1.2198,-3.368 -0.2627,-1.915 -0.1405,-2.22 1.8814,-4.703 1.1911,-1.461 2.1608,-3.142 2.159,-3.742 0,-1.411 -1.4071,-3.512 -3.5441,-5.306 -2.1571,-1.811 -2.5097,-3.512 -2.5312,-12.213 -0.015,-5.926 1.0384,-18.076 1.6526,-19.068 0.1343,-0.219 0,-0.848 -0.2941,-1.402 -0.4487,-0.838 -0.3709,-1.171 0.4692,-2.004 0.554,-0.549 1.2892,-1.41 1.6336,-1.914 0.6067,-0.884 0.6624,-0.871 1.7768,0.425 l 1.1505,1.337 1.9936,-3.71 c 1.0966,-2.041 2.5452,-4.292 3.2191,-5.001 1.1073,-1.167 1.2575,-1.778 1.5595,-6.338 0.3271,-4.942 0.3098,-5.073 -0.8296,-6.286 -1.7252,-1.836 -1.9495,-4.606 -0.6052,-7.476 0.9073,-1.936 0.9925,-2.489 0.5208,-3.374 -0.31,-0.581 -0.5319,-2.006 -0.4929,-3.169 0.039,-1.162 -0.1624,-2.957 -0.4474,-3.99 -0.2849,-1.033 -0.6227,-2.425 -0.7506,-3.094 -0.1675,-0.876 -0.7327,-1.412 -2.0232,-1.919 -1.4586,-0.574 -1.8957,-1.054 -2.3572,-2.595 -0.3116,-1.04 -0.5665,-2.309 -0.5665,-2.82 0,-0.511 -0.4036,-1.294 -0.8968,-1.741 -0.4932,-0.446 -1.0349,-1.363 -1.2041,-2.036 -0.1691,-0.673 -0.832,-1.848 -1.473,-2.61 -0.6412,-0.762 -1.5807,-2.199 -2.0879,-3.193 -0.5073,-0.995 -2.2891,-3.894 -3.9597,-6.444 -4.5058,-6.876 -10.3354,-19.849 -9.8283,-21.869 0.2152,-0.858 -0.1277,-1.57 -1.4735,-3.059 -1.196,-1.324 -1.9289,-2.718 -2.3031,-4.38 -0.502,-2.229 -0.7864,-2.6 -3.3127,-4.324 -4.9959,-3.41 -6.7181,-7.741 -5.1447,-12.937 l 0.8409,-2.778 -1.7381,-2.23 c -1.2083,-1.552 -1.6609,-2.539 -1.485,-3.239 0.2313,-0.923 0.033,-1.028 -2.2943,-1.221 -2.1962,-0.182 -3.0016,-0.556 -5.8418,-2.714 -1.8119,-1.379 -3.3959,-2.77 -3.5198,-3.093 -0.2742,-0.715 1.6505,-2.739 6.4067,-6.738 2.3106,-1.943 3.471,-3.228 3.2582,-3.608 -0.1818,-0.326 -1.3452,-1.766 -2.5852,-3.203 -1.737,-2.012 -3.1377,-3.035 -6.1013,-4.462 -2.1157,-1.017 -4.9777,-2.849 -6.36,-4.07 -2.294,-2.025 -2.4912,-2.356 -2.2594,-3.784 0.2411,-1.487 0.2022,-1.539 -0.773,-1.032 -1.9524,1.013 -28.0709,19.192 -62.997,43.846 -34.5355,24.378 -33.3764,23.54 -34.4517,24.907 -0.5265,0.669 -3.0507,2.76 -5.6096,4.644 -2.5589,1.886 -4.8042,3.674 -4.9898,3.974 -0.2057,0.332 0.9152,1.663 2.8739,3.409 1.7661,1.574 5.3429,5.033 7.9484,7.687 12.6321,12.86 12.7042,18.632 0.2322,18.562 -5.1669,-0.03 -10.5604,-1.31 -13.2197,-3.137 -4.0497,-2.783 -6.0939,-10.448 -5.1109,-19.165 0.66,-5.851 1.1747,-7.509 2.853,-9.187 2.0398,-2.041 9.7932,-7.369 12.3961,-8.521 1.8828,-0.832 10.4884,-6.891 36.3738,-25.606 2.9696,-2.148 18.0596,-12.946 33.5336,-23.997 15.474,-11.052 28.205,-20.305 28.2911,-20.563 0.086,-0.258 -1.0244,-2.331 -2.468,-4.607 -3.3447,-5.271 -4.0544,-7.261 -4.0388,-11.322 0.019,-4.952 1.2184,-9.418 3.6044,-13.419 1.1419,-1.915 2.6093,-4.591 3.2604,-5.947 0.9481,-1.974 1.4117,-2.465 2.3262,-2.465 0.6283,0 2.6278,-0.754 4.4434,-1.676 4.64,-2.357 9.916,-3.341 14.434,-2.69 4.4326,0.639 7.5233,2.189 11.9162,5.978 3.1596,2.725 3.5797,2.954 4.0919,2.238 1.2824,-1.792 1.6578,-1.972 4.1425,-1.972 h 2.5635 v -1.538 c 0,-0.847 0.3457,-2.032 0.7681,-2.635 0.6436,-0.92 1.0608,-1.058 2.5723,-0.855 1.64,0.22 1.8893,0.107 2.7414,-1.274 1.0105,-1.636 2.6863,-2.617 4.467,-2.617 0.8563,0 1.2399,-0.378 1.6523,-1.629 0.4377,-1.325 0.8362,-1.683 2.1491,-1.929 0.9016,-0.169 1.6118,-0.584 1.6118,-0.944 0,-0.813 2.1493,-2.249 2.7819,-1.858 0.2618,0.161 0.7853,-0.445 1.1635,-1.35 0.9513,-2.277 2.4984,-2.59 6.2854,-1.269 l 2.9723,1.038 1.6487,-1.019 c 2.2232,-1.373 3.4019,-0.788 5.4441,2.708 1.4635,2.505 1.7752,2.764 3.9097,3.27 4.139,0.978 7.9604,2.744 7.8825,3.641 -0.1157,1.329 5.3069,6.696 11.3379,11.222 11.9933,9.001 18.6613,17.399 23.9771,30.199 2.4508,5.902 2.3286,7.135 -1.1562,11.675 -4.0506,5.275 -15.0431,15.132 -18.7671,16.829 -1.0816,0.492 -1.1097,0.634 -0.8177,4.137 0.3553,4.261 0.326,4.304 -4.865,7.224 -1.8141,1.02 -3.2987,2.021 -3.2994,2.223 0,0.696 6.7303,10.443 11.8293,17.125 11.6663,15.289 21.3982,32.346 26.1588,45.849 4.0645,11.527 5.4816,19.975 5.0204,29.924 l -0.2973,6.415 1.4132,1.413 c 1.6024,1.602 1.784,3.27 0.9057,8.313 l -0.5074,2.913 3.1595,3.914 c 5.0237,6.223 7.8362,13.236 7.8907,19.678 0.027,3.129 -0.8012,5.325 -3.7094,9.835 -0.9058,1.405 -1.1224,2.551 -1.3805,7.301 -0.4381,8.063 -1.0544,12.738 -2.4327,18.456 -0.8798,3.651 -1.2268,6.424 -1.2742,10.181 -0.061,4.829 -0.1673,5.377 -1.6423,8.45 -0.8676,1.809 -2.5024,6.234 -3.6331,9.836 -3.0568,9.737 -4.0642,12.246 -9.1914,22.879 -5.0119,10.394 -4.6775,9.265 -6.7116,22.683 -0.4305,2.841 -1.3692,6.929 -2.086,9.088 -1.1966,3.602 -1.2518,4.072 -0.6749,5.747 0.9897,2.872 1.257,7.79 0.6799,12.503 -0.7019,5.731 -3.3002,15.928 -5.648,22.167 l -1.8905,5.024 0.9302,1.824 c 0.7146,1.402 0.9304,2.764 0.9304,5.876 0,5.166 -1.1353,9.623 -4.1955,16.473 -2.2726,5.088 -2.4481,5.781 -3.8101,15.065 -1.5559,10.605 -2.3735,13.566 -4.8909,17.71 l -1.6571,2.728 1.2099,3.214 c 0.6656,1.768 1.3279,4.62 1.4719,6.338 l 0.2617,3.122 2.8052,1.342 c 1.5428,0.737 3.3296,1.964 3.9705,2.725 1.0821,1.286 1.1539,1.682 1.0046,5.523 l -0.1607,4.139 h 11.9762 c 23.6005,0 76.2214,0.998 77.0894,1.462 0.4754,0.254 0.7402,0.663 0.5886,0.909 -0.1667,0.27 -7.9096,0.446 -19.6134,0.446 -18.6104,0 -38.4103,0.444 -62.7641,1.405 -20.3696,0.804 -64.4461,1.086 -78.871,0.503 -32.8844,-1.326 -49.8073,-1.229 -98.5888,0.565 -8.65,0.318 -17.8398,0.552 -20.4219,0.52 -2.5822,-0.03 -9.4481,-0.12 -15.2579,-0.204 -7.9446,-0.106 -12.134,0.05 -16.9009,0.662 -5.3363,0.68 -9.9203,0.793 -29.0101,0.71 -17.8494,-0.08 -22.3933,-0.215 -21.3609,-0.648 z m 185.5785,-6.844 c 16.9128,-0.276 34.87,-0.643 39.905,-0.815 l 9.1547,-0.315 0.1451,-1.497 c 0.08,-0.824 -0.3178,-2.936 -0.8834,-4.695 -0.928,-2.884 -1.0209,-4.091 -0.9515,-12.351 0.097,-11.634 0.7109,-14.756 5.9943,-30.516 l 4.0134,-11.972 -1.6678,-5.164 c -0.9175,-2.841 -1.7967,-6.643 -1.9539,-8.45 -0.5334,-6.134 1.0819,-17.75 5.1576,-37.089 1.841,-8.734 1.7614,-6.404 0.903,-26.469 -0.2442,-5.708 0.1641,-10.67 1.0727,-13.038 0.7487,-1.951 -0.8798,0.144 -2.7033,3.477 -2.4908,4.556 -7.5442,12.277 -12.8267,19.599 -3.3421,4.632 -5.6001,8.719 -12.7115,23.004 -11.0721,22.241 -16.2044,31.467 -36.8213,66.196 l -8.3613,14.083 -1.7444,-0.141 c -2.5148,-0.203 -9.4312,-2.267 -12.7296,-3.798 l -2.8311,-1.313 -2.6763,2.431 c -2.3679,2.152 -2.8717,2.949 -4.371,6.915 -2.1351,5.646 -3.9408,7.987 -6.0071,7.786 -0.9909,-0.09 -1.6216,-0.487 -1.9339,-1.199 -0.2549,-0.581 -0.6067,-1.057 -0.7817,-1.057 -0.54,0 -4.2298,4.392 -4.7335,5.634 -0.2617,0.646 -1.0414,3.445 -1.7327,6.221 l -1.2566,5.046 h 11.2913 c 6.2102,0 25.1289,-0.233 42.0415,-0.507 z m 65.7859,-4.238 c 3.5187,-1.006 8.2232,-2.672 10.4542,-3.703 2.2311,-1.03 4.3819,-1.874 4.7798,-1.874 1.5504,0 0.019,-0.915 -3.9097,-2.337 -2.2591,-0.817 -5.251,-2.138 -6.6486,-2.938 -2.5013,-1.431 -2.5858,-1.444 -5.3988,-0.874 -5.438,1.102 -5.3363,1.103 -3.3274,-0.01 1.0328,-0.576 3.0221,-1.518 4.4205,-2.094 2.3282,-0.96 2.6349,-0.988 3.6383,-0.33 1.4989,0.982 1.3442,0.238 -0.3609,-1.737 -1.3345,-1.546 -1.4012,-1.572 -1.1229,-0.429 0.28,1.15 0.2131,1.202 -1.2617,0.992 -1.9154,-0.274 -4.2573,-2.562 -4.0515,-3.957 0.081,-0.545 0.4161,-1.046 0.7452,-1.112 0.3292,-0.07 0.382,0 0.1171,0.12 -0.7916,0.392 -0.5461,1.835 0.4688,2.753 0.7329,0.663 1.0774,0.732 1.507,0.302 0.4294,-0.428 0.3875,-0.85 -0.1837,-1.843 -0.4072,-0.707 -0.6546,-1.522 -0.5496,-1.811 0.2903,-0.797 -2.4695,-1.166 -4.8082,-0.642 -2.4094,0.541 -8.2951,3.048 -10.178,4.337 -1.6921,1.158 -1.6446,2.182 0.1171,2.534 1.3852,0.277 1.8601,0.875 0.9394,1.182 -0.2781,0.09 -0.097,1.136 0.4457,2.563 0.503,1.324 1.1489,3.859 1.4348,5.633 0.8635,5.355 0.8478,5.338 4.5569,5.122 l 3.1863,-0.185 -3.6385,0.509 c -3.1159,0.435 -3.6383,0.64 -3.6383,1.421 0,0.842 0.2267,0.886 2.9342,0.579 1.6137,-0.184 5.8131,-1.158 9.332,-2.163 z m -4.1679,-0.737 c 0.452,-0.12 1.1913,-0.12 1.6431,0 0.452,0.12 0.083,0.216 -0.8214,0.216 -0.9038,0 -1.2735,-0.09 -0.8217,-0.216 z m -102.3064,-11.53 c 1.2629,-1.687 2.4408,-3.887 3.1393,-5.864 0.4122,-1.168 0.2839,-1.106 -1.3013,0.626 -0.9674,1.057 -2.551,2.509 -3.5193,3.225 -1.6317,1.208 -2.1998,2.474 -1.4475,3.226 0.7281,0.728 2.0633,0.21 3.1288,-1.213 z m 114.4509,-4.474 c -0.4299,-0.802 -6.1587,-4.228 -6.1587,-3.682 0,0.133 1.2618,1.118 2.8039,2.2 1.5421,1.082 2.9561,2.415 3.1421,2.963 0.2807,0.828 0.3677,0.863 0.5121,0.201 0.096,-0.439 -0.039,-1.195 -0.2994,-1.682 z m -38.5774,-391.934 c 2.1975,-0.496 3.5684,-1.07 3.9263,-1.643 0.3438,-0.551 1.0902,-0.881 1.9909,-0.881 0.7925,0 3.1183,-0.409 5.1686,-0.909 2.0502,-0.501 5.2597,-1.153 7.1319,-1.451 1.8723,-0.298 3.8127,-0.893 4.312,-1.321 0.8733,-0.749 0.8829,-0.986 0.2502,-6.178 -0.3617,-2.97 -0.6718,-6.667 -0.6889,-8.216 -0.055,-4.884 -2.5875,-10.348 -7.1977,-15.527 -2.754,-3.095 -3.4182,-3.164 -8.2908,-0.877 l -3.5579,1.668 -6.696,-1.1 c -6.4307,-1.058 -6.7457,-1.069 -7.9532,-0.277 -1.1213,0.736 -1.3707,0.751 -2.3086,0.136 -1.2016,-0.787 -1.9739,-0.855 -2.9212,-0.254 -0.5288,0.334 -0.1755,1.076 1.7475,3.67 7.659,10.332 12.7281,27.011 9.8983,32.569 -0.7975,1.567 0.3084,1.693 5.1886,0.591 z" id="path17" /></g></svg>